<?xml version="1.0" encoding="UTF-8"?>
<svg id="Layer_1" data-name="Layer 1" xmlns="http://www.w3.org/2000/svg" viewBox="0 0 656.14 655.67">
  <path d="M0,71.97c7.46-4.93,14.93-9.86,22.39-14.8,24.77-16.37,51.55-28.66,79.48-38.42C169.44-4.85,237.44-6.06,305.87,15.32c57.12,17.85,100.62,53.23,132.61,103.11,25.98,40.51,34.1,85.49,29.71,132.83-3.24,34.97-13.15,68.08-31.23,98.47-1.2,2.01-2.4,4.02-3.71,5.95-5.26,7.79-5.37,7.86,.46,14.83,10.96,13.09,22.04,26.09,33.69,39.85,1.62-2.45,2.7-3.99,3.69-5.6,26.48-43.24,42.95-90.11,50.78-140.1,2.2-14.04,4.18-28.12,6.1-42.2,1.94-14.21-.09-27.39-8.75-39.51-9.18-12.84-12.34-27.46-9.24-43.11,4.24-21.34,11.67-41.54,22.25-60.55,3.47-6.24,7.65-12.47,14.84-14.1,7.39-1.67,7.93-5.92,7.56-11.99-.44-7.36,0-14.76-.34-22.13-.74-15.81-3.21-19.87-16.04-27.7,4.48-3.38,9.16,.09,17.36,12.74,2.3-3.83,4.32-8.05,7.17-11.6,1.67-2.08,4.63-3.19,7.14-4.47,.53-.27,1.81,.44,2.42,1.04,.23,.23-.33,1.94-.78,2.07-11.38,3.2-12.81,13.03-13.65,22.19-1.03,11.26-.54,22.67-.35,34,.02,1.39,2.03,3.58,3.5,3.96,7.9,2.05,13.79,6.48,18.36,13.2,13.08,19.26,22.56,40.01,27.32,62.91,2.93,14.12-.08,26.95-7.91,38.55-8.03,11.9-11.54,24.69-12.1,39.02-2.14,54.45-8.46,108.32-24.79,160.61-7.86,25.17-18.33,49.18-31.91,71.81-.91,1.52-1.78,3.07-2.8,4.82,11.12,8.07,23.7,11.36,36.73,13.4,8.62,1.35,17.19,1.43,25.6-1.45,14.77-5.06,24.31-18.52,24.76-36.96,.29-12.2-.76-24.44-1.4-36.65-.54-10.46-1.41-20.83,4.75-30.3,7.66-11.77,25.59-15.26,36.76-6.83,.84,.63,1.15,1.96,1.7,2.97-1.17,.54-2.45,1.72-3.48,1.53-12.46-2.25-21.92,7.33-20.51,19.88,1.7,15.17,4.58,30.21,6.8,45.32,3.38,23.05-.49,44.41-17.28,61.49-13.28,13.51-30.64,18.92-49.15,20.96-22.25,2.46-42.73-3.76-62.69-12.62-1.63-.72-3.23-1.5-5.3-2.47-2.05,2.72-4.1,5.39-6.11,8.09-32.46,43.62-71.68,79.52-119.89,105.21-30.25,16.12-61.36,30.13-94.77,38.26-56.81,13.82-113.98,16.55-170.82,1.25-19.98-5.38-39.34-13.75-58.15-22.55-18.18-8.5-35.28-19.3-52.87-29.07-.59-.33-1.27-.48-1.91-.71,0-57.65,0-115.3,0-172.95,2.56,4.7,4.89,9.54,7.71,14.07,35.46,56.9,84.45,95.54,150.53,110.66,47.89,10.96,95.48,8.96,142.24-5.88,15.69-4.98,30.93-11.7,45.84-18.76,24.99-11.84,48.07-26.85,68.32-45.8,9.14-8.55,17.57-17.86,25.9-26.39-14.83-16.98-28.96-33.15-43.37-49.64-27.68,27.34-60.58,45.96-97.85,56.74-47.91,13.86-95.13,13.4-141.1-7.99-35.09-16.34-63.73-39.4-80.22-75.64-12.99-28.55-18.05-58-11.18-88.86,7.69-34.6,27.5-61.01,56.76-80.34,22.71-15,47.74-23.59,75.19-23.36,47.63,.39,88.54,18.4,122.76,50.63,16.42,15.47,30.2,33.75,45.11,50.81,2.77,3.16,5.24,6.58,7.85,9.88,.61-.05,1.21-.1,1.82-.16,2.7-8.31,5.74-16.52,8.03-24.94,5.51-20.21,5.86-40.42-.49-60.65-5.68-18.06-14.12-34.44-26.07-49.25-29.58-36.67-67.51-58.25-114.22-63.74-36.3-4.26-71.72,.23-106.23,12.53-38.92,13.88-72.46,36-100.11,66.46C23.73,185.25,12.34,202.01,0,217.9c0-48.64,0-97.29,0-145.93ZM344.69,333.7c-.68-1.04-1.06-1.86-1.64-2.49-12.24-13.16-23.79-27.06-36.91-39.28-22.54-20.99-47-39.39-78.75-44.06-18.24-2.68-36.13-2.1-52.82,7.47-32.75,18.77-35.63,50.74-18.94,76.99,15.85,24.94,41.03,35.9,69.18,40.05,30.1,4.45,58.66-1.79,85.69-15.34,12.37-6.2,24.11-13.41,34.2-23.35Z"/>
</svg>